<svg width="120" height="120" viewBox="0 0 120 120" fill="none" xmlns="http://www.w3.org/2000/svg">
<path d="M43.2944 59.7572C28.8629 59.7572 14.4315 88.5661 0 88.5661V59.8089C15.0025 59.8089 29.434 31 43.2944 31V59.7572Z" fill="#111111"/>
<path d="M86.6409 59.7572C72.2094 59.7572 57.7779 88.5661 43.3465 88.5661V59.8089C58.3489 59.8089 72.7804 31 86.6409 31V59.7572Z" fill="#111111"/>
<path d="M120 71.9604C120 81.1314 112.538 88.566 103.333 88.566C94.1286 88.566 86.6667 81.1314 86.6667 71.9604C86.6667 62.7894 94.1286 55.3548 103.333 55.3548C112.538 55.3548 120 62.7894 120 71.9604Z" fill="#111111"/>
</svg>
